<svg width="14" height="10" viewBox="0 0 14 10" fill="none" xmlns="http://www.w3.org/2000/svg">
<path d="M5.44766 9.73C5.31639 9.73027 5.18637 9.70461 5.06504 9.6545C4.94371 9.60439 4.83348 9.53082 4.74066 9.438L0.498658 5.195C0.403085 5.10282 0.326826 4.99253 0.274333 4.87056C0.221839 4.7486 0.194162 4.6174 0.192915 4.48462C0.191668 4.35184 0.216878 4.22015 0.267071 4.09722C0.317265 3.97429 0.391439 3.86258 0.485265 3.76863C0.57909 3.67467 0.690688 3.60034 0.813547 3.54997C0.936407 3.4996 1.06807 3.4742 1.20085 3.47526C1.33362 3.47632 1.46486 3.50381 1.5869 3.55614C1.70894 3.60846 1.81934 3.68456 1.91166 3.78L5.44666 7.315L11.8117 0.952001C11.9992 0.76436 12.2535 0.658892 12.5188 0.658798C12.7841 0.658705 13.0385 0.763993 13.2262 0.951501C13.4138 1.13901 13.5193 1.39338 13.5194 1.65865C13.5195 1.92392 13.4142 2.17836 13.2267 2.366L6.15466 9.438C6.06184 9.53082 5.9516 9.60439 5.83028 9.6545C5.70895 9.70461 5.57892 9.73027 5.44766 9.73Z" fill="#2FAB73"/>
</svg>
